<svg width="108" height="108" viewBox="0 0 108 108" fill="none" xmlns="http://www.w3.org/2000/svg">
<path d="M72.5 37C82.165 37 90 44.835 90 54.5C90 64.165 82.165 72 72.5 72H35.5C25.835 72 18 64.165 18 54.5C18 44.835 25.835 37 35.5 37H72.5ZM34.3828 45C29.2012 45 25.0003 49.2043 25 54.3906C25 59.5772 29.201 63.7822 34.3828 63.7822C36.5705 63.7821 38.5811 63.0299 40.1768 61.7734L42.6025 63.6826C43.2457 64.1888 44.1769 64.0772 44.6826 63.4336C45.1883 62.7899 45.0775 61.8578 44.4346 61.3516L42.1953 59.5898C43.1859 58.1012 43.7646 56.3134 43.7646 54.3906C43.7644 49.2044 39.5643 45.0002 34.3828 45ZM34.3828 47.9658C37.9279 47.966 40.8015 50.8423 40.8018 54.3906C40.8018 57.9392 37.9281 60.8162 34.3828 60.8164C30.8374 60.8164 27.9629 57.9393 27.9629 54.3906C27.9631 50.8421 30.8375 47.9658 34.3828 47.9658ZM55 52.5C54.1716 52.5 53.5 53.1716 53.5 54C53.5 54.8284 54.1716 55.5 55 55.5H72C72.8284 55.5 73.5 54.8284 73.5 54C73.5 53.1716 72.8284 52.5 72 52.5H55Z" fill="black"/>
</svg>
