<svg width="108" height="108" viewBox="0 0 108 108" fill="none" xmlns="http://www.w3.org/2000/svg">
<rect x="18" y="37" width="72" height="35" rx="17.5" fill="#70434B"/>
<path fill-rule="evenodd" clip-rule="evenodd" d="M34.3824 45C39.5642 45 43.7649 49.2045 43.7649 54.3911C43.7649 56.3139 43.1863 58.1009 42.1957 59.5896L44.4342 61.3514C45.0774 61.8576 45.1888 62.7899 44.683 63.4337C44.1773 64.0774 43.2458 64.1889 42.6027 63.6828L40.177 61.7733C38.5813 63.0299 36.5704 63.7822 34.3824 63.7822C29.2007 63.7822 25 59.5777 25 54.3911C25 49.2045 29.2007 45 34.3824 45ZM34.3824 47.9656C30.837 47.9656 27.9629 50.8424 27.9629 54.3911C27.9629 57.9398 30.837 60.8166 34.3824 60.8166C37.9279 60.8166 40.802 57.9398 40.802 54.3911C40.802 50.8424 37.9279 47.9656 34.3824 47.9656Z" fill="#C9ADAF"/>
<path d="M55 54H72" stroke="#AA7F82" stroke-width="3" stroke-linecap="round"/>
</svg>
